<svg xmlns="http://www.w3.org/2000/svg" version="1.1" xmlns:xlink="http://www.w3.org/1999/xlink" xmlns:svgjs="http://svgjs.dev/svgjs" width="1000" height="999" viewBox="0 0 1000 999"><g transform="matrix(1,0,0,1,-0.215743440233382,-0.21552769679306039)"><svg viewBox="0 0 343 343" data-background-color="#ffffff" preserveAspectRatio="xMidYMid meet" height="999" width="1000" xmlns="http://www.w3.org/2000/svg" xmlns:xlink="http://www.w3.org/1999/xlink"><g id="tight-bounds" transform="matrix(1,0,0,1,0.0740000000000407,0.07400000000001228)"><svg viewBox="0 0 342.85155851775386 342.85155851775386" height="342.85155851775386" width="342.85155851775386"><g><svg></svg></g><g><svg viewBox="0 0 342.85155851775386 342.85155851775386" height="342.85155851775386" width="342.85155851775386"><g><path d="M0 171.426c0-94.676 76.75-171.426 171.426-171.426 94.676 0 171.426 76.75 171.426 171.426 0 94.676-76.75 171.426-171.426 171.426-94.676 0-171.426-76.75-171.426-171.426zM171.426 338.464c92.252 0 167.038-74.785 167.038-167.038 0-92.252-74.785-167.038-167.038-167.038-92.252 0-167.038 74.785-167.038 167.038 0 92.252 74.785 167.038 167.038 167.038z" data-fill-palette-color="tertiary" fill="#ed3b43" stroke="transparent"></path><ellipse rx="164.56874808852186" ry="164.56874808852186" cx="171.42577925887693" cy="171.42577925887693" fill="#ed3b43" stroke="transparent" stroke-width="0" fill-opacity="1" data-fill-palette-color="tertiary"></ellipse></g><g transform="matrix(1,0,0,1,64.84655864529837,107.73226206685206)"><svg viewBox="0 0 213.1584412271571 127.38703438404976" height="127.38703438404976" width="213.1584412271571"><g><svg viewBox="0 0 213.1584412271571 127.38703438404976" height="127.38703438404976" width="213.1584412271571"><g><svg viewBox="0 0 213.1584412271571 127.38703438404976" height="127.38703438404976" width="213.1584412271571"><g transform="matrix(1,0,0,1,0,78.73029776370346)"><svg viewBox="0 0 213.1584412271571 48.656736620346294" height="48.656736620346294" width="213.1584412271571"><g id="textblocktransform"><svg viewBox="0 0 213.1584412271571 48.656736620346294" height="48.656736620346294" width="213.1584412271571" id="textblock"><g><svg viewBox="0 0 213.1584412271571 48.656736620346294" height="48.656736620346294" width="213.1584412271571"><g transform="matrix(1,0,0,1,0,0)"><svg width="213.1584412271571" viewBox="0.8300000429153442 -38.15999984741211 168.75999450683594 38.529998779296875" height="48.656736620346294" data-palette-color="#ffffff"><path d="M18.14 0.02L18.09 0.1Q17.31 0 15.53 0L15.53 0 12.84 0Q12.18 0 11.65 0.05L11.65 0.05 11.62 0Q11.72-0.17 11.72-0.39 11.72-0.61 11.68-0.85 11.65-1.1 11.47-1.73 11.3-2.37 10.94-3.56L10.94-3.56 9.91-6.84 0.83-32.57Q2.34-32.47 4.69-32.47 7.03-32.47 7.69-32.67L7.69-32.67 15.04-10.47 21.48-32.57Q22.95-32.47 25.1-32.47L25.1-32.47Q28.03-32.47 28.52-32.67L28.52-32.67 19.6-6.91Q19.6-6.91 18.75-4.05L18.75-4.05Q18.04-1.61 18.04-0.89 18.04-0.17 18.14 0.02L18.14 0.02ZM37.42-28.83L31.93-32.79Q33.88-35.84 36.01-38.16L36.01-38.16 41.26-34.03Q40.21-32.74 39.3-31.49L39.3-31.49Q39.3-31.49 37.42-28.83L37.42-28.83ZM38.35-25.51L38.35-2.73Q38.35-0.63 38.45 0L38.45 0 32.25 0 32.25-25.51 38.35-25.51ZM62.74-1.37L62.74-1.37Q59.64 0.37 56.54 0.37 53.44 0.37 51.12-0.61 48.8-1.59 47.16-3.3L47.16-3.3Q43.79-6.81 43.79-12.43L43.79-12.43Q43.79-18.24 47.7-22.09L47.7-22.09Q51.63-26 57.76-26L57.76-26Q59.64-26 61.45-25.51L61.45-25.51 61.45-36.38 67.43-36.38 67.43-10.28Q67.43-7.03 67.73-6.03 68.04-5.03 68.42-4.57 68.79-4.1 69.38-3.69L69.38-3.69 64.79 0.37Q63.52-0.32 62.74-1.37ZM57.69-5.25L57.69-5.25Q59.74-5.25 61.45-6.03L61.45-6.03 61.45-19.56Q59.74-20.26 57.73-20.26 55.73-20.26 54.3-19.73 52.88-19.19 51.85-18.24L51.85-18.24Q49.7-16.24 49.7-13.04L49.7-13.04Q49.7-9.55 51.66-7.47L51.66-7.47Q53.75-5.25 57.69-5.25ZM92.11-20.07L92.18-14.04Q91.01-14.16 89.15-14.16L89.15-14.16 81.76-14.16 81.76 0 75.07 0 75.07-32.64Q75.72-32.59 76.58-32.57L76.58-32.57 78.39-32.52Q80.24-32.47 82.24-32.47L82.24-32.47Q88.25-32.47 93.72-32.67L93.72-32.67Q93.45-30.52 93.45-26.93L93.45-26.93Q93.45-26.54 93.5-26.34L93.5-26.34 93.45-26.27Q92.16-26.64 89.84-26.64L89.84-26.64 81.76-26.64 81.76-19.92 88.88-19.92Q91.57-19.92 92.11-20.07L92.11-20.07ZM98.18-12.55L98.18-12.55Q98.18-15.41 99.16-17.85 100.14-20.29 101.92-22.12L101.92-22.12Q105.73-26 111.88-26L111.88-26Q117.08-26 120.23-22.56L120.23-22.56Q123.33-19.24 123.33-14.21L123.33-14.21Q123.33-12.28 123.04-11.57L123.04-11.57Q120.6-10.89 113.1-10.89L113.1-10.89 104.51-10.89Q105.14-8.28 107.46-6.82 109.78-5.37 113.49-5.37L113.49-5.37Q117.37-5.37 120.16-6.76L120.16-6.76Q120.89-7.13 121.25-7.45L121.25-7.45Q121.21-6.42 121.13-5.35L121.13-5.35 120.86-1.54Q119.01-0.27 114.86 0.22L114.86 0.22Q113.64 0.37 112.51 0.37L112.51 0.37Q106.31 0.37 102.26-3.25L102.26-3.25Q98.18-6.88 98.18-12.55ZM116.84-15.63L116.84-15.63Q115.83-20.87 111.12-20.87L111.12-20.87Q107.41-20.87 105.48-17.68L105.48-17.68Q104.9-16.7 104.58-15.53L104.58-15.53Q105.17-15.5 106.02-15.48L106.02-15.48 107.83-15.48Q108.73-15.45 109.56-15.45L109.56-15.45 110.95-15.45Q112.2-15.45 113.39-15.48L113.39-15.48 115.4-15.55Q116.2-15.58 116.84-15.63ZM137.22 0.37L137.22 0.37Q130.33 0.37 126.84-2.15L126.84-2.15Q126.89-2.88 126.99-3.81L126.99-3.81 127.21-5.57Q127.4-7.3 127.45-7.73 127.5-8.15 127.53-8.19 127.55-8.23 127.92-7.8 128.28-7.37 129.31-6.76 130.33-6.15 131.68-5.69L131.68-5.69Q134.58-4.69 137.73-4.69L137.73-4.69Q141.96-4.69 141.96-7.5L141.96-7.5Q141.96-8.4 141.15-8.84L141.15-8.84Q139.71-9.57 136.91-9.95 134.12-10.33 132.34-11.06 130.55-11.79 129.43-12.82L129.43-12.82Q127.36-14.75 127.36-17.87L127.36-17.87Q127.36-21.68 130.29-23.85L130.29-23.85Q133.19-26 138.32-26L138.32-26Q143.4-26 146.98-23.12L146.98-23.12Q146.81-22.49 146.62-21.9L146.62-21.9Q146.06-20.29 145.79-19.58L145.79-19.58 145.23-18.14Q145.18-17.94 145.15-17.94L145.15-17.94Q145.1-17.94 144.76-18.46L144.76-18.46Q143.22-20.24 139.98-20.8L139.98-20.8Q138.98-21 137.93-21L137.93-21Q133.48-21 133.48-18.31L133.48-18.31Q133.48-17.38 134.41-16.89L134.41-16.89Q136.14-15.97 139.16-15.53 142.18-15.09 143.74-14.34 145.3-13.6 146.25-12.55L146.25-12.55Q148.01-10.64 148.01-7.5L148.01-7.5Q148.01-4.05 145.25-1.9L145.25-1.9Q142.37 0.37 137.22 0.37ZM165-5.37L165-5.37Q168.15-5.37 169.32-7.01L169.32-7.01 169.52-7.01 169.59-1.34Q168.39-0.15 165.15 0.24L165.15 0.24Q164.27 0.37 162.96 0.37 161.65 0.37 160.13-0.12 158.6-0.61 157.53-1.71L157.53-1.71Q155.31-3.98 155.31-8.81L155.31-8.81 155.31-19.9 151.62-19.9Q151.6-20.61 151.6-21.34L151.6-21.34 151.6-25.1Q151.6-25.51 151.62-25.51L151.62-25.51 155.31-25.51 155.31-32.47 161.29-32.47 161.29-25.51 168-25.51 168-19.9 161.29-19.9 161.29-9.94Q161.29-6.1 163.41-5.57L163.41-5.57Q164.1-5.37 165-5.37Z" opacity="1" transform="matrix(1,0,0,1,0,0)" fill="#ffffff" class="wordmark-text-0" data-fill-palette-color="quaternary" id="text-0"></path></svg></g></svg></g></svg></g></svg></g><g transform="matrix(1,0,0,1,62.34000350218475,0)"><svg viewBox="0 0 88.47843422278761 67.24361000931859" height="67.24361000931859" width="88.47843422278761"><g><svg xmlns="http://www.w3.org/2000/svg" xmlns:xlink="http://www.w3.org/1999/xlink" version="1.1" x="0" y="0" viewBox="0 13 100 76" enable-background="new 0 0 100 100" xml:space="preserve" height="67.24361000931859" width="88.47843422278761" class="icon-icon-0" data-fill-palette-color="quaternary" id="icon-0"><g fill="#ffffff" data-fill-palette-color="quaternary"><g fill="#ffffff" data-fill-palette-color="quaternary"><g fill="#ffffff" data-fill-palette-color="quaternary"><path d="M49.72 35.093c-8.964 0-16.231 7.268-16.231 16.231s7.268 16.231 16.231 16.231 16.231-7.268 16.231-16.231S58.684 35.093 49.72 35.093zM44.123 61.455V41.193l14.179 10.131L44.123 61.455z" fill="#ffffff" data-fill-palette-color="quaternary"></path></g><g fill="#ffffff" data-fill-palette-color="quaternary"><path d="M100 83.03c0 3.297-2.673 5.97-5.97 5.97H5.97C2.673 89 0 86.327 0 83.03V18.97C0 15.673 2.673 13 5.97 13H94.03c3.297 0 5.97 2.673 5.97 5.97V83.03zM5 18v65h89.034L94.03 18H5z" fill="#ffffff" data-fill-palette-color="quaternary"></path></g></g></g></svg></g></svg></g><g></g></svg></g></svg></g></svg></g></svg></g><defs></defs></svg><rect width="342.85155851775386" height="342.85155851775386" fill="none" stroke="none" visibility="hidden"></rect></g></svg></g></svg>